<svg xmlns="http://www.w3.org/2000/svg" width="289" height="60" viewBox="0 0 289 60" fill="none" aria-hidden="true" focusable="false"><path d="M40.789 2.037c-.102-.192-.853-1.392-1.873-1.819-1.028-.434-2.318-.095-2.573-.044A93.432 93.432 0 0021.28 4.576a87.876 87.876 0 00-6.224 2.68 26.136 26.136 0 00-9.212 7.324A25.78 25.78 0 001.953 40a28.664 28.664 0 002.456 4.872c2.674 4.233 6.413 7.42 11.42 9.6 5.88 2.561 11.558 2.885 17.315 1.177.875-.257 1.75-.56 2.624-.912 12.425-4.984 18.824-18.941 14.59-32.089-3.083-9.562-7.31-17.004-9.562-20.597" fill="#B7E2E3"></path><path d="M50.008 12.961c-.03-.213-.284-1.612-1.071-2.392-.795-.788-2.121-.957-2.376-1.009-3.243-.618-8.855-1.457-15.61-1.56-2.143-.03-4.41.007-6.763.154a25.94 25.94 0 00-11.245 3.35A25.541 25.541 0 001.516 25.085 25.457 25.457 0 000 33.64c0 1.892.16 3.703.488 5.448.933 4.932 3.229 9.297 7.077 13.198 4.518 4.587 9.678 7.009 15.646 7.583.904.088 1.83.132 2.777.132 13.373.03 24.435-10.534 25.332-24.33.656-10.033-.54-18.528-1.312-22.709z" fill="#00A4CE"></path><path d="M40.498 50.548c.146-.022 1.093-.221 1.618-.773.524-.56.626-1.487.656-1.664.379-2.26.889-6.176.874-10.872a58.74 58.74 0 00-.19-4.697 18.277 18.277 0 00-2.419-7.774c-2.12-3.65-5.451-6.411-9.394-7.78a17.157 17.157 0 00-5.852-.95c-1.29.022-2.521.154-3.702.405-3.352.706-6.29 2.363-8.905 5.08-3.068 3.194-4.657 6.816-4.97 10.967a21.064 21.064 0 00-.059 1.93c.146 9.297 7.477 16.857 16.893 17.313 6.843.331 12.615-.604 15.457-1.192" fill="#fff"></path><path d="M15.697 43.047c.008.088.117.677.452 1.008.336.332.897.405.999.427a39.425 39.425 0 009.43.604 10.956 10.956 0 004.744-1.406 10.753 10.753 0 004.825-5.72 10.57 10.57 0 00.641-3.607c0-.795-.066-1.56-.204-2.297-.394-2.076-1.356-3.916-2.973-5.565-1.902-1.936-4.074-2.96-6.588-3.202a12.16 12.16 0 00-1.174-.059c-5.633-.022-10.305 4.424-10.69 10.24-.278 4.225.218 7.81.538 9.57" fill="#374A98"></path><path d="M80.944 40.64c1.552-1.59 2.332-3.836 2.332-6.736s-.78-5.197-2.332-6.839c-1.553-1.642-3.79-2.459-6.698-2.459h-4.052v18.426h4.052c2.915 0 5.145-.795 6.698-2.393zm.27-17.867c1.996 1.024 3.534 2.496 4.62 4.417 1.086 1.921 1.632 4.16 1.632 6.714 0 2.554-.546 4.777-1.632 6.662-1.086 1.884-2.631 3.327-4.62 4.328-1.998 1.001-4.322 1.502-6.968 1.502h-8.133V21.235h8.133c2.653 0 4.978.515 6.967 1.538zm12.593 23.623h-4.088v-19.95h4.088v19.95zm-3.87-23.35c-.503-.508-.75-1.134-.75-1.885 0-.75.255-1.376.75-1.884.503-.508 1.123-.758 1.866-.758.743 0 1.326.25 1.829.758.503.508.75 1.133.75 1.884 0 .751-.254 1.377-.75 1.885a2.467 2.467 0 01-1.83.758 2.578 2.578 0 01-1.865-.758zm22.133 9.769c-.562-1.016-1.298-1.79-2.201-2.32a5.738 5.738 0 00-2.937-.794c-1.05 0-2.033.257-2.937.78-.911.523-1.647 1.28-2.201 2.282-.561 1.001-.845 2.186-.845 3.563 0 1.377.277 2.584.845 3.622.561 1.038 1.304 1.825 2.223 2.37a5.643 5.643 0 002.922.817 5.775 5.775 0 002.937-.795c.904-.53 1.64-1.31 2.201-2.333.561-1.024.845-2.224.845-3.6 0-1.377-.284-2.57-.845-3.585M97.983 31.01c.823-1.546 1.945-2.746 3.366-3.6 1.422-.854 2.996-1.288 4.716-1.288 1.552 0 2.907.31 4.066.92 1.159.619 2.084 1.384 2.777 2.297v-2.893h4.117v19.95h-4.117V43.43c-.693.942-1.64 1.722-2.835 2.355-1.195.626-2.558.942-4.089.942-1.698 0-3.25-.441-4.656-1.317-1.407-.884-2.53-2.113-3.353-3.696-.823-1.582-1.239-3.371-1.239-5.373 0-2.003.416-3.777 1.24-5.323m38.61 1.745c-.562-1.001-1.305-1.76-2.223-2.282a5.949 5.949 0 00-2.959-.78 5.682 5.682 0 00-2.922.794c-.919.53-1.662 1.303-2.223 2.32-.561 1.015-.838 2.208-.838 3.584 0 1.377.284 2.577.838 3.6.561 1.023 1.304 1.803 2.223 2.334a5.761 5.761 0 005.881-.023c.918-.544 1.661-1.332 2.223-2.37.561-1.038.838-2.245.838-3.622 0-1.376-.285-2.561-.838-3.563m-8.316-5.712c1.203-.618 2.551-.92 4.03-.92 1.742 0 3.324.42 4.73 1.266 1.407.846 2.522 2.046 3.331 3.6.809 1.56 1.217 3.334 1.217 5.337 0 2.002-.408 3.798-1.217 5.373-.817 1.583-1.932 2.812-3.353 3.696-1.421.883-2.995 1.317-4.715 1.317-1.53 0-2.886-.301-4.066-.905-1.181-.604-2.121-1.377-2.813-2.319v2.893h-4.089V19.593h4.089v9.813c.692-.964 1.639-1.76 2.849-2.37m30.841 7.589c-.022-1.523-.561-2.738-1.611-3.658-1.049-.913-2.354-1.377-3.906-1.377-1.406 0-2.616.45-3.622 1.355-1.005.905-1.603 2.127-1.793 3.673h10.932v.007zm4.125 3.335h-15.086c.117 1.59.707 2.871 1.757 3.835 1.049.965 2.339 1.45 3.869 1.45 2.201 0 3.754-.927 4.657-2.79h4.409c-.597 1.834-1.676 3.335-3.243 4.506-1.567 1.17-3.505 1.76-5.823 1.76-1.887 0-3.578-.428-5.072-1.29-1.494-.853-2.667-2.06-3.512-3.62-.846-1.554-1.276-3.358-1.276-5.411 0-2.054.416-3.858 1.239-5.411.824-1.553 1.982-2.753 3.476-3.6 1.494-.846 3.207-1.266 5.145-1.266 1.939 0 3.52.412 4.985 1.23a8.596 8.596 0 013.404 3.46c.808 1.486 1.217 3.194 1.217 5.123 0 .75-.051 1.42-.146 2.024zm8.564-8.149v11.042c0 .75.175 1.288.517 1.612.343.324.94.486 1.771.486h2.507v3.438h-3.221c-1.837 0-3.25-.434-4.227-1.303-.976-.869-1.472-2.282-1.472-4.233V29.811h-2.332v-3.364h2.332v-4.962h4.125v4.962h4.802v3.364h-4.802zm21.323 4.814c-.022-1.523-.561-2.738-1.611-3.658-1.049-.913-2.354-1.377-3.906-1.377-1.407 0-2.616.45-3.622 1.355-1.006.905-1.603 2.127-1.793 3.673h10.932v.007zm4.125 3.335h-15.086c.117 1.59.707 2.871 1.756 3.835 1.05.965 2.34 1.45 3.87 1.45 2.201 0 3.753-.927 4.657-2.79h4.409c-.598 1.834-1.676 3.335-3.243 4.506-1.567 1.17-3.505 1.76-5.823 1.76-1.887 0-3.578-.428-5.072-1.29-1.494-.853-2.667-2.06-3.513-3.62-.845-1.554-1.275-3.358-1.275-5.411 0-2.054.415-3.858 1.239-5.411.823-1.553 1.982-2.753 3.476-3.6 1.494-.846 3.207-1.266 5.145-1.266 1.939 0 3.52.412 4.985 1.23a8.6 8.6 0 013.403 3.46c.809 1.486 1.217 3.194 1.217 5.123 0 .75-.051 1.42-.145 2.024zm6.063 7.906c-1.232-.567-2.201-1.34-2.923-2.319a5.752 5.752 0 01-1.144-3.275h4.227c.073.846.474 1.553 1.203 2.12.728.566 1.639.846 2.74.846 1.1 0 2.04-.22 2.667-.67.634-.449.947-1.015.947-1.722 0-.751-.349-1.303-1.056-1.664-.707-.36-1.822-.758-3.353-1.192-1.479-.413-2.689-.81-3.622-1.193a6.304 6.304 0 01-2.419-1.774c-.678-.795-1.02-1.848-1.02-3.15 0-1.06.313-2.032.932-2.916.62-.883 1.509-1.575 2.668-2.083 1.159-.508 2.492-.758 3.993-.758 2.245 0 4.06.574 5.43 1.722 1.37 1.149 2.106 2.71 2.201 4.69h-4.089c-.073-.891-.43-1.605-1.071-2.135-.641-.53-1.516-.795-2.616-.795-1.101 0-1.895.206-2.471.618-.576.412-.86.957-.86 1.627 0 .53.19.979.576 1.34.379.36.845.647 1.399.853.547.207 1.363.464 2.434.78 1.436.384 2.609.781 3.527 1.179a6.662 6.662 0 012.384 1.752c.67.773 1.013 1.796 1.034 3.077 0 1.133-.313 2.15-.932 3.04-.62.89-1.502 1.59-2.631 2.098-1.137.508-2.471.758-3.994.758-1.523 0-2.944-.287-4.176-.854m19.16-26.258h-4.089v26.788h4.089V19.608zm9.102 26.788h-4.088v-19.95h4.088v19.95zm-3.877-23.35c-.502-.508-.75-1.134-.75-1.885 0-.75.255-1.376.75-1.884.503-.508 1.123-.758 1.866-.758.743 0 1.326.25 1.829.758.503.508.751 1.133.751 1.884 0 .751-.255 1.377-.751 1.885a2.479 2.479 0 01-1.829.758 2.592 2.592 0 01-1.866-.758zm12.98 23.35h-4.088v-19.95h4.088v19.95zm-3.877-23.35c-.503-.508-.751-1.134-.751-1.885 0-.75.255-1.376.751-1.884.503-.508 1.122-.758 1.866-.758.743 0 1.326.25 1.829.758.503.508.75 1.133.75 1.884 0 .751-.255 1.377-.75 1.885a2.479 2.479 0 01-1.829.758 2.59 2.59 0 01-1.866-.758zm13.656 6.765v11.042c0 .75.175 1.288.518 1.612.342.324.94.486 1.771.486h2.507v3.438h-3.221c-1.844 0-3.251-.434-4.227-1.303-.977-.869-1.472-2.282-1.472-4.233V29.811h-2.332v-3.364h2.332v-4.962h4.124v4.962h4.803v3.364h-4.803zm12.973 0v11.042c0 .75.175 1.288.517 1.612.343.324.941.486 1.771.486h2.507v3.438h-3.221c-1.844 0-3.25-.434-4.227-1.303-.976-.869-1.472-2.282-1.472-4.233V29.811h-2.332v-3.364h2.332v-4.962h4.125v4.962h4.803v3.364h-4.803zm18.299 12.566c.918-.508 1.669-1.266 2.237-2.282.576-1.016.86-2.245.86-3.695 0-1.45-.277-2.673-.824-3.674-.546-1-1.275-1.76-2.186-2.26a5.904 5.904 0 00-2.937-.758 5.83 5.83 0 00-2.922.758c-.897.508-1.611 1.26-2.128 2.26-.525 1.001-.787 2.223-.787 3.674 0 2.149.546 3.805 1.632 4.976 1.086 1.17 2.456 1.76 4.103 1.76 1.05 0 2.033-.251 2.959-.759m-8.017 3.055c-1.508-.854-2.689-2.061-3.549-3.622-.86-1.553-1.29-3.357-1.29-5.41 0-2.054.445-3.828 1.327-5.396.882-1.568 2.091-2.776 3.622-3.622 1.53-.847 3.236-1.266 5.123-1.266 1.888 0 3.593.42 5.123 1.266 1.531.846 2.733 2.054 3.622 3.622.882 1.568 1.327 3.364 1.327 5.396 0 2.031-.452 3.827-1.363 5.395-.911 1.568-2.143 2.783-3.71 3.637-1.566.854-3.294 1.288-5.174 1.288-1.88 0-3.549-.427-5.05-1.288" fill="#384B9A"></path></svg>