<?xml version="1.0" encoding="UTF-8"?>
<svg width="97px" height="26px" viewBox="0 0 97 26" version="1.1" xmlns="http://www.w3.org/2000/svg" xmlns:xlink="http://www.w3.org/1999/xlink">
    <!-- Generator: Sketch 51.3 (57544) - http://www.bohemiancoding.com/sketch -->
    <title>Group 2</title>
    <desc>Created with Sketch.</desc>
    <defs></defs>
    <g id="Symbols" stroke="none" stroke-width="1" fill="none" fill-rule="evenodd">
        <g id="Component/footer" transform="translate(-180.000000, -94.000000)" fill="#D8127D">
            <g id="Group-2" transform="translate(228.500000, 107.000000) rotate(-90.000000) translate(-228.500000, -107.000000) translate(215.500000, 58.500000)">
                <path d="M21.5946218,71.8933284 L21.5946218,60.3675257 C21.5946218,59.2151426 22.5230252,58.2831625 23.6664426,58.2831625 C24.8118207,58.2831625 25.7397199,59.2151426 25.7397199,60.3675257 L25.7397199,71.8933284 C25.7397199,73.0459368 24.8118207,73.9776352 23.6664426,73.9776352 C22.5230252,73.9776352 21.5946218,73.0459368 21.5946218,71.8933284" id="Fill-32"></path>
                <path d="M0.911876751,50.6113133 C0.911876751,46.6593278 3.84313725,43.2699559 7.73154062,42.7256529 C8.86436975,42.5665481 9.91344538,43.363368 10.0704202,44.5028492 C10.2276751,45.6416542 9.43703081,46.6966251 8.30246499,46.8552791 C6.45226891,47.1139371 5.05630252,48.7288735 5.05630252,50.6113133 C5.05630252,52.7005781 6.75053221,54.4007009 8.82997199,54.4007009 C10.2318207,54.4007009 11.5793838,54.0689133 12.6733894,50.0591227 L12.6773669,50.0390656 C13.0903081,48.5808677 14.3472269,44.1423844 18.9994398,43.736453 C20.7762465,43.5802779 22.5680112,44.2028938 23.9157983,45.4435056 C25.2523249,46.6756665 25.9868908,48.3656481 25.9868908,50.2026776 C25.9868908,53.2557547 24.0759664,55.8268411 21.2285154,56.6019137 C20.1247059,56.9018691 18.9859384,56.245111 18.6869468,55.1335183 C18.3872269,54.0234467 19.0405042,52.8787259 20.1467787,52.5773057 C20.5440896,52.4688507 21.8410084,51.978409 21.8410084,50.2026776 C21.8410084,49.3636026 21.4462185,48.8222293 21.1147899,48.5183301 C20.6295798,48.071383 19.9736134,47.8356555 19.3586555,47.8905309 C18.6828011,47.9485613 17.5546218,48.0476638 16.6672269,51.1729127 C15.7994398,54.3498257 14.0413445,58.5703287 8.82997199,58.5703287 C4.46369748,58.5703287 0.911876751,54.9986397 0.911876751,50.6113133" id="Fill-33"></path>
                <path d="M0.911876751,7.96446303 C0.911876751,4.01270291 3.84313725,0.622823914 7.73154062,0.0797604312 C8.86436975,-0.0788373181 9.91344538,0.716236017 10.0704202,1.85650595 C10.2276751,2.99649417 9.43703081,4.05050721 8.30246499,4.20842887 C6.45226891,4.46736857 5.05630252,6.0819669 5.05630252,7.96446303 C5.05630252,10.0556997 6.75053221,11.7538506 8.82997199,11.7538506 C10.2318207,11.7538506 11.5793838,11.4237532 12.6733894,7.41294851 L12.6773669,7.39446892 C13.0903081,5.9354823 14.3472269,1.49598481 18.9994398,1.09056051 C20.7762465,0.935174153 22.5680112,1.55677592 23.9157983,2.79885264 C25.2523249,4.02954864 25.9868908,5.71851608 25.9868908,7.55701048 C25.9868908,10.6094115 24.0759664,13.1814557 21.2285154,13.9550634 C20.1247059,14.2562019 18.984986,13.5982607 18.6869468,12.4879075 C18.3872269,11.3755823 19.0412325,10.2315939 20.1467787,9.93039904 C20.5453221,9.82295822 21.8410084,9.33274187 21.8410084,7.55701048 C21.8410084,6.71793543 21.4462185,6.17712555 21.1147899,5.8711981 C20.6295798,5.42402569 19.9736134,5.18931229 19.3586555,5.24289185 C18.6828011,5.30171105 17.5546218,5.40154594 16.6672269,8.52606245 C15.7994398,11.7059051 14.0413445,15.9237601 8.82997199,15.9237601 C4.46369748,15.9237601 0.911876751,12.3534797 0.911876751,7.96446303" id="Fill-34"></path>
                <path d="M15.3464426,77.5628458 L15.3464426,91.8086985 C19.0363585,91.0717119 21.470084,88.3444504 21.470084,84.6795747 C21.470084,81.0199387 19.0363585,78.2988746 15.3464426,77.5628458 M0.933277311,85.2273708 C0.933277311,78.2553799 6.12308123,73.1947877 13.2738936,73.1947877 C16.5839776,73.1947877 19.6485714,74.2873375 21.9002801,76.2731052 C24.2964146,78.3831032 25.6144538,81.3693044 25.6144538,84.6795747 C25.6144538,87.9893942 24.2964146,90.9770603 21.902465,93.0900443 C19.6485714,95.0799813 16.5831933,96.1767565 13.2738936,96.1767565 L11.2008403,96.1767565 L11.2008403,77.5774379 C7.51114846,78.3685674 5.07820728,81.2944283 5.07820728,85.2273708 C5.07820728,87.4211467 5.92134454,89.351532 7.58145658,90.9627499 C8.40498599,91.7619924 8.43053221,93.0811426 7.63473389,93.9113159 C6.8394958,94.7400243 5.52633053,94.7627294 4.7037535,93.9637123 C2.23591036,91.5685764 0.933277311,88.5487964 0.933277311,85.2273708" id="Fill-35"></path>
                <path d="M1.06935574,66.1302862 C1.06935574,64.9789172 1.99876751,64.0446835 3.14190476,64.0446835 L22.9305882,64.0446835 C24.0735014,64.0446835 25.0029132,64.9789172 25.0029132,66.1302862 C25.0029132,67.2811481 24.0735014,68.2131282 22.9305882,68.2131282 L3.14190476,68.2131282 C1.99876751,68.2131282 1.06935574,67.2811481 1.06935574,66.1302862" id="Fill-36"></path>
                <path d="M12.737423,37.7847274 C5.21591036,37.4482072 2.94504202,27.8787627 2.90106443,27.6457395 C2.85512605,27.4110261 3.0064986,27.1639742 3.28851541,27.2296669 C4.06509804,27.4117585 5.25714286,27.5140723 5.25714286,27.5140723 C5.50285714,26.6937586 5.84386555,25.9302921 6.26448179,25.2372509 C6.26616246,25.2330818 6.26963585,25.2308282 6.27036415,25.2271097 C6.33770308,25.1171899 6.40672269,25.0077208 6.47871148,24.9005054 C6.47871148,24.8994913 6.47871148,24.8994913 6.48089636,24.8985335 C8.23484594,22.2750506 11.1952941,20.7735835 14.4714846,21.2736594 C18.0969748,21.8243851 20.8083473,24.6808348 21.3554622,28.1384348 C21.4296359,28.5829029 21.469916,29.0382446 21.469916,29.5052488 C21.469916,30.9975888 21.0714286,32.3975309 20.3785994,33.6064232 C20.3552941,33.6482276 20.3317087,33.6904265 20.3054342,33.7322309 C20.29507,33.7522317 20.2830812,33.7724578 20.2710364,33.7922333 C18.7612885,36.3623056 15.9708683,37.9391559 12.737423,37.7847274 M25.6143417,29.5052488 C25.6143417,22.6619953 20.0791597,17.0946228 13.2737815,17.0946228 C6.46812325,17.0946228 0.933165266,22.6619953 0.933165266,29.5052488 C0.933165266,36.3492346 6.46812325,41.914579 13.2737815,41.914579 C20.0791597,41.914579 25.6143417,36.3492346 25.6143417,29.5052488" id="Fill-37"></path>
            </g>
        </g>
    </g>
</svg>