<svg xmlns="http://www.w3.org/2000/svg" viewBox="0 0 157 40"><path fill="#000" d="M.049.138S-.093 0 .106 0h36.528s.199 0 .057.138L18.47 18.125s-.142.139-.283 0zM40.266 0L18.33 21.38v3.19L43.362 0zm6.209 0L18.32 27.799l.003 3.154L49.743 0zM18.439 34.132s-.2 0-.058-.138l14.954-14.717s.142-.138.142.058v14.598s0 .2-.2.2zm137.88-.573c0 .292-.222.523-.598.581-.941.144-1.571.231-2.483.231-3.457 0-5.278-.841-5.278-4.957v-8.41l-2.516-.376c-.344-.058-.658-.293-.658-.61v-1.915c0-.318.311-.607.658-.607h2.516v-2.378c0-.318.282-.52.629-.578l3.836-.61h.093c.315 0 .566.202.566.491V17.5h2.576c.347 0 .63.26.63.578v2.348c0 .318-.286.579-.63.579h-2.576v8.44c0 1.159.096 1.361 1.037 1.361h1.539c.408 0 .659.174.659.492zm-19.777-18.585c0 .318-.315.581-.662.581h-2.955c-.344 0-.691-.263-.691-.581v-2.696c0-.318.344-.578.69-.578h2.956c.347 0 .662.26.662.578zm6.82 0c0 .318-.343.581-.69.581h-2.956c-.344 0-.658-.263-.658-.581v-2.696c0-.318.311-.578.658-.578h2.956c.343 0 .69.26.69.578zm-3.8 12.03h-1.793c-2.2 0-2.766.698-2.766 2.118v.26c0 1.22.662 1.452 1.983 1.452.94 0 1.821-.292 2.576-.64zm4.996 6.526c0 .32-.283.581-.624.578h-3.52c-.348 0-.63-.26-.63-.578v-.463c-1.224.81-2.484 1.304-4.37 1.304-2.733 0-5.374-1.22-5.374-4.989v-.26c0-3.393 2.358-4.9 7.732-4.9h1.697V23.18c0-1.655-.88-2.002-2.358-2.002-2.011 0-4.244.116-5.218.203h-.157c-.315 0-.565-.145-.565-.52v-2.35c0-.317.218-.549.597-.635 1.16-.264 3.36-.61 5.436-.61 4.526 0 7.354 1.68 7.354 5.914zm-16.487 1.51c0 3.855-1.918 4.956-4.964 4.953-.82 0-1.603-.058-2.515-.202-.408-.058-.63-.26-.63-.578v-2.29c0-.319.254-.521.662-.521h1.381c.88 0 .974-.376.974-1.362V18.106c0-.318.25-.607.597-.607h3.897c.347 0 .598.289.598.607zm.125-20.009c0 .319-.315.582-.659.579h-4.054c-.347 0-.63-.26-.63-.579v-2.695c0-.318.283-.578.63-.578h4.054c.344 0 .659.26.659.578zm-16.545-.057c0 .318-.315.581-.659.581h-2.955c-.347 0-.69-.263-.69-.581v-2.696c0-.318.343-.578.69-.578h2.955c.344 0 .659.26.659.578zm6.82 0c0 .318-.347.581-.69.581h-2.956c-.347 0-.662-.263-.662-.581v-2.696c0-.318.315-.578.662-.578h2.956c.343 0 .69.26.69.578zm-3.8 15.22v-3.19h-1.793c-2.2 0-2.766.698-2.766 2.118v.26c0 1.22.659 1.452 1.98 1.452.94 0 1.82-.292 2.576-.64zm4.992 3.336c0 .32-.282.581-.63.578h-3.52c-.348 0-.63-.26-.63-.578v-.463c-1.227.81-2.483 1.304-4.37 1.304-2.733 0-5.374-1.22-5.374-4.989v-.26c0-3.393 2.358-4.9 7.733-4.9h1.7V23.18c0-1.655-.881-2.002-2.359-2.002-2.01 0-4.244.116-5.217.203h-.158c-.314 0-.565-.145-.565-.52v-2.35c0-.317.222-.549.598-.635 1.166-.264 3.366-.61 5.439-.61 4.526 0 7.353 1.68 7.353 5.914zm-15.809.029c0 .292-.218.523-.594.581-.945.144-1.571.231-2.484.231-3.456 0-5.281-.841-5.281-4.957v-8.41l-2.516-.376c-.343-.058-.658-.293-.658-.61v-1.915c0-.318.311-.607.658-.607h2.516v-2.378c0-.318.283-.52.63-.578l3.835-.61h.094c.314 0 .565.202.565.491V17.5h2.576c.347 0 .63.26.63.578v2.348c0 .318-.283.579-.63.579h-2.576v8.44c0 1.159.096 1.361 1.038 1.361h1.538c.408 0 .659.174.659.492zm-12.288 0c0 .292-.222.523-.591.581-.945.144-1.571.231-2.484.231-3.46 0-5.281-.841-5.281-4.957v-8.41l-2.516-.376c-.347-.058-.661-.293-.661-.61v-1.915c0-.318.315-.607.661-.607h2.516v-2.378c0-.318.283-.52.63-.578l3.832-.61h.093c.315 0 .566.202.566.491V17.5h2.58c.346 0 .63.26.63.578v2.348c0 .318-.287.579-.63.579h-2.58v8.44c0 1.159.093 1.361 1.037 1.361h1.54c.407 0 .658.174.658.492zm-13.326-.03c0 .322-.283.582-.63.579h-3.836c-.347 0-.63-.26-.63-.578V18.077c0-.318.283-.578.63-.578h3.836c.347 0 .63.26.63.578zm.125-18.498c0 .319-.282.582-.63.579H73.65c-.347 0-.63-.26-.63-.579v-2.695c0-.318.283-.578.63-.578h4.087c.347 0 .63.26.63.578zM71.388 20.6c0 .26-.19.55-.476.55h-.25c-1.54 0-2.892.433-4.055 1.014v11.338c0 .32-.282.61-.63.61h-3.803c-.344 0-.659-.292-.659-.61V18.077c0-.318.283-.578.63-.578h3.74c.346 0 .629.26.629.578v.581c1.163-.9 2.734-1.39 4.244-1.39.347 0 .63.26.63.578zm-9.343-7.396L57.3 23.236c-.63 1.334-1.288 1.944-2.043 2.233v8.06c0 .319-.283.579-.63.579H50.51c-.344 0-.627-.26-.627-.578v-8.06c-.754-.293-1.445-.9-2.075-2.234l-4.745-10.033c-.032-.057-.032-.144-.032-.202 0-.231.19-.434.504-.434h4.527c.315 0 .536.235.63.495l3.395 8.176c.158.376.254.434.473.434.221 0 .314-.058.472-.434l3.396-8.176c.096-.263.314-.495.63-.495h4.526c.311 0 .5.203.5.434 0 .058 0 .148-.038.202z"></path></svg>